<svg width="70" height="40" viewBox="0 0 70 40" fill="none" xmlns="http://www.w3.org/2000/svg">
<g clip-path="url(#clip0_168_1424)">
<path d="M3.40389 12.7442H16.8593V16.9748H20.2632V9.3834H11.8535V8.11816H8.44966V9.3834H0V16.9748H3.40389V12.7442Z" fill="#333333"/>
<path d="M16.2185 15.3144V13.6143H4.32495V16.975H12.1739C11.7334 17.4495 11.0927 17.7263 10.3719 17.7263H6.52747L6.00688 18.4775C5.08582 19.8614 3.52404 20.6917 1.84212 20.6917H0.120149V24.0525H1.84212C4.365 24.0525 6.68765 22.9454 8.28948 21.0871H9.49086V21.4429C7.48857 23.8548 4.48514 25.2386 1.32152 25.2782H0.0801029L0.120149 28.639H1.36157C4.28491 28.5994 7.08811 27.69 9.45081 26.069C9.13045 27.5319 7.80894 28.639 6.20711 28.639V31.9998C9.89132 31.9998 12.9348 29.0344 12.9348 25.3573V20.5335C14.897 19.5846 16.2185 17.6077 16.2185 15.3144Z" fill="#333333"/>
<path d="M17.3398 24.2892V23.5379C19.1018 22.4309 20.2631 20.4935 20.2631 18.2793H16.8592C16.8592 19.8608 15.5377 21.1656 13.9359 21.1656V24.5264C14.056 28.0058 16.9794 30.8131 20.5434 30.8131V27.4523C18.7814 27.4523 17.3398 26.0289 17.3398 24.2892Z" fill="#333333"/>
<path d="M40.0458 15.9468C40.0458 16.619 39.405 17.1725 38.6041 17.1725V20.5333C41.2872 20.5333 43.4897 18.4773 43.4897 15.9468V11.479V9.81833V8.11816H26.1899V11.479H40.0458V15.9468Z" fill="#333333"/>
<path d="M35.921 23.4987V19.1494H32.5171V24.4871C32.5171 26.7804 30.635 28.6387 28.3123 28.6387H26.1499V31.9995H28.3123C30.8352 31.9995 33.0778 30.7738 34.4794 28.8759C36.0412 30.7738 38.4439 31.9995 41.127 31.9995H43.2494V28.6387H41.127C38.2437 28.6387 35.921 26.3455 35.921 23.4987Z" fill="#333333"/>
<path d="M38.6041 12.7441H29.7139V16.1049H38.6041V12.7441Z" fill="#333333"/>
<path d="M29.794 23.4983C29.794 22.2331 28.7528 21.2051 27.4714 21.2051C26.1899 21.2051 25.1487 22.2331 25.1487 23.4983C25.1487 24.7636 26.1899 25.7916 27.4714 25.7916C28.7528 25.7916 29.794 24.7636 29.794 23.4983Z" fill="#333333"/>
<path d="M41.9279 21.2051C40.6465 21.2051 39.6053 22.2331 39.6053 23.4983C39.6053 24.7636 40.6465 25.7916 41.9279 25.7916C43.2094 25.7916 44.2506 24.7636 44.2506 23.4983C44.2506 22.2331 43.2094 21.2051 41.9279 21.2051Z" fill="#333333"/>
<path d="M54.3822 18.9918V12.8237H62.5915L63.5126 17.9638C63.5927 18.3987 63.7128 18.7941 63.833 19.1895C63.4325 19.2685 63.0721 19.3476 62.6316 19.3476H62.0709V22.7084H62.6316C63.5927 22.7084 64.5137 22.5502 65.3547 22.2735C66.1156 23.3015 67.0767 24.2109 68.1579 24.883L70 22.0362C69.3593 21.6409 68.7586 21.0873 68.278 20.5338C68.7586 20.0988 69.2391 19.5848 69.5996 18.9918L66.7563 17.1334L65.9954 12.8237H69.3593V9.46293H65.3947L65.1545 8L61.7906 8.59308L61.9508 9.46293H50.9382V18.9522C50.9382 19.7825 50.2574 20.4547 49.4165 20.4547V23.8155C52.1796 23.855 54.3822 21.6804 54.3822 18.9918Z" fill="#333333"/>
<path d="M56.5847 24.3691L53.341 25.3971C54.6224 29.351 58.3467 32.0001 62.5515 32.0001H64.0332V28.6393H62.5515C59.8284 28.6393 57.4256 26.9392 56.5847 24.3691Z" fill="#333333"/>
<path d="M55.7037 20.8893H61.0297V16.6191L58.3467 14.9189L55.7037 16.6191V20.8893Z" fill="#333333"/>
<path d="M52.1098 31.9734C53.376 31.7705 54.2359 30.5926 54.0304 29.3424C53.8249 28.0922 52.6318 27.2432 51.3656 27.4461C50.0994 27.649 49.2395 28.827 49.445 30.0771C49.6505 31.3273 50.8436 32.1763 52.1098 31.9734Z" fill="#333333"/>
<path d="M67.4371 27.4531C66.1556 27.4531 65.1144 28.4811 65.1144 29.7464C65.1144 31.0116 66.1556 32.0396 67.4371 32.0396C68.7185 32.0396 69.7597 31.0116 69.7597 29.7464C69.7597 28.4811 68.7185 27.4531 67.4371 27.4531Z" fill="#333333"/>
</g>
<defs>
<clipPath id="clip0_168_1424">
<rect width="70" height="24" fill="white" transform="translate(0 8)"/>
</clipPath>
</defs>
</svg>
